<?xml version="1.0" encoding="utf-8"?>
<!-- Generator: Adobe Illustrator 22.0.1, SVG Export Plug-In . SVG Version: 6.00 Build 0)  -->
<svg version="1.1" id="Warstwa_1" xmlns="http://www.w3.org/2000/svg" xmlns:xlink="http://www.w3.org/1999/xlink" x="0px" y="0px"
	 viewBox="0 0 170 170" enable-background="new 0 0 170 170" xml:space="preserve">
<g>
	<path d="M158.4,2l-15.7,11.8l-15.8,36.8h-12.7l-5-10.8h3.3c6,0,10.8-4.8,10.8-10.8V18.2h5.4V2h-16.2v16.2h5.4v10.9
		c0,3-2.4,5.4-5.4,5.4h-5.8l-6.9-14.9l8.3-4.1L81,3.8L74.6,26c-0.2-13.3-11-24-24.3-24C36.9,2,26,13,26,26.4
		c0,8.1,4.1,15.7,10.8,20.2v4.1h-6.5l-0.4,2.2c-1.3,6.8-1.4,13.8-0.4,20.8l-18.4,32.8l20.3,4.6v34h27v24.3h64.8v-37.6
		C142.2,118.4,153,96.9,153,74l0-9.9c0-3.7-0.3-7.5-1-11.3l-0.4-2.2h-5.3l12.2-29.1V2z M117.9,12.9V7.5h5.4v5.4H117.9z M108.2,50.6
		H98l-4.9-10.8h10.2L108.2,50.6z M84.5,11.1l10.7,4.6L92.7,17l8.1,17.4H90.6L84.1,20l-2.4,1.2L84.5,11.1z M92.1,50.6h-12v-5.3
		c0-3,2.4-5.5,5.4-5.5h1.7v0L92.1,50.6z M81.5,27.3l3.3,7.2c-5.6,0.4-10.1,5-10.1,10.7v5.4H63.8v-4.1c5.4-3.6,9.1-9.3,10.3-15.6
		L81.5,27.3z M31.4,26.4c0-10.4,8.5-18.9,18.9-18.9c10.4,0,18.9,8.5,18.9,18.9c0,6.7-3.6,13-9.5,16.4l-1.3,0.8v7.1H53V34
		c3.1-1.1,5.4-4.1,5.4-7.6c0-4.5-3.6-8.1-8.1-8.1c-4.5,0-8.1,3.6-8.1,8.1c0,3.5,2.3,6.5,5.4,7.6v16.7h-5.4v-7.1l-1.3-0.8
		C35.1,39.3,31.4,33.1,31.4,26.4L31.4,26.4z M50.3,29.1c-1.5,0-2.7-1.2-2.7-2.7c0-1.5,1.2-2.7,2.7-2.7c1.5,0,2.7,1.2,2.7,2.7
		C53,27.9,51.8,29.1,50.3,29.1L50.3,29.1z M147,56c0.4,2.7,0.6,5.4,0.6,8.1l0,9.9c0,21.6-10.7,41.9-28.5,54.2l-1.2,0.8v35.1h-54
		v-24.3h-27v-32.9l-17.5-4l15.8-28.2l-0.2-1c-1-5.9-1.1-12.2-0.2-17.6H147z M140.4,50.6h-7.6l13.5-31.4l6,3L140.4,50.6z M153,16.6
		l-3-1.5l3-2.2V16.6z M153,16.6"/>
	<linearGradient id="SVGID_1_" gradientUnits="userSpaceOnUse" x1="42.2419" y1="70.8746" x2="69.2523" y2="70.8746">
		<stop  offset="0" style="stop-color:#5FC1CF"/>
		<stop  offset="0.5074" style="stop-color:#60BBA0"/>
		<stop  offset="1" style="stop-color:#70C0A8"/>
	</linearGradient>
	<path fill="url(#SVGID_1_)" d="M55.7,72.2c-4.5,0-8.1-2.7-8.1-8.1h-5.4c0,8.1,6.1,13.5,13.5,13.5c7.4,0,13.5-5.4,13.5-13.5h-5.4
		C63.8,69.5,60.2,72.2,55.7,72.2L55.7,72.2z M55.7,72.2"/>
</g>
</svg>
