<?xml version="1.0" encoding="utf-8"?>
<!-- Generator: Adobe Illustrator 22.0.1, SVG Export Plug-In . SVG Version: 6.00 Build 0)  -->
<svg version="1.1" id="Warstwa_1" xmlns="http://www.w3.org/2000/svg" xmlns:xlink="http://www.w3.org/1999/xlink" x="0px" y="0px"
	 viewBox="0 0 170 170" enable-background="new 0 0 170 170" xml:space="preserve">
<g>
	<path d="M133.1,2H36.3C29,2,23,8,23,15.3v140.4c0,7.3,6,13.3,13.3,13.3h96.8c7.3,0,13.3-6,13.3-13.3V15.3C146.5,8,140.5,2,133.1,2
		L133.1,2z M141.1,155.7c0,4.4-3.6,8-8,8H36.3c-4.4,0-8-3.6-8-8V15.3c0-4.4,3.6-8,8-8h96.8c4.4,0,8,3.6,8,8V155.7z M141.1,155.7"/>
	<linearGradient id="SVGID_1_" gradientUnits="userSpaceOnUse" x1="33.6373" y1="80.1658" x2="135.7986" y2="80.1658">
		<stop  offset="0" style="stop-color:#5FC1CF"/>
		<stop  offset="0.5074" style="stop-color:#60BBA0"/>
		<stop  offset="1" style="stop-color:#70C0A8"/>
	</linearGradient>
	<path fill="url(#SVGID_1_)" d="M133.1,12.7l-75.5,0c-1.5,0-2.7,1.2-2.7,2.7c0,1.5,1.2,2.7,2.7,2.7l72.8,0v124.4H39L39,18h8
		c1.5,0,2.7-1.2,2.7-2.7c0-1.5-1.2-2.7-2.7-2.7H36.3c-1.5,0-2.7,1.2-2.7,2.7l0,129.7c0,0.7,0.3,1.4,0.8,1.9s1.2,0.8,1.9,0.8h96.8
		c1.5,0,2.7-1.2,2.7-2.7V15.3C135.8,13.9,134.6,12.7,133.1,12.7L133.1,12.7z M133.1,12.7"/>
	<linearGradient id="SVGID_2_" gradientUnits="userSpaceOnUse" x1="76.7233" y1="155.6755" x2="92.7127" y2="155.6755">
		<stop  offset="0" style="stop-color:#5FC1CF"/>
		<stop  offset="0.5074" style="stop-color:#60BBA0"/>
		<stop  offset="1" style="stop-color:#70C0A8"/>
	</linearGradient>
	<path fill="url(#SVGID_2_)" d="M90,153H79.4c-1.5,0-2.7,1.2-2.7,2.7s1.2,2.7,2.7,2.7H90c1.5,0,2.7-1.2,2.7-2.7S91.5,153,90,153
		L90,153z M90,153"/>
	<linearGradient id="SVGID_3_" gradientUnits="userSpaceOnUse" x1="47.8572" y1="29.5284" x2="121.5859" y2="29.5284">
		<stop  offset="0" style="stop-color:#5FC1CF"/>
		<stop  offset="0.5074" style="stop-color:#60BBA0"/>
		<stop  offset="1" style="stop-color:#70C0A8"/>
	</linearGradient>
	<path fill="url(#SVGID_3_)" d="M118.9,26.9H50.5c-1.5,0-2.7,1.2-2.7,2.7c0,1.5,1.2,2.7,2.7,2.7h68.4c1.5,0,2.7-1.2,2.7-2.7
		C121.6,28.1,120.4,26.9,118.9,26.9L118.9,26.9z M118.9,26.9"/>
	<linearGradient id="SVGID_4_" gradientUnits="userSpaceOnUse" x1="47.8572" y1="42.1884" x2="121.5859" y2="42.1884">
		<stop  offset="0" style="stop-color:#5FC1CF"/>
		<stop  offset="0.5074" style="stop-color:#60BBA0"/>
		<stop  offset="1" style="stop-color:#70C0A8"/>
	</linearGradient>
	<path fill="url(#SVGID_4_)" d="M118.9,39.5H50.5c-1.5,0-2.7,1.2-2.7,2.7c0,1.5,1.2,2.7,2.7,2.7h68.4c1.5,0,2.7-1.2,2.7-2.7
		C121.6,40.7,120.4,39.5,118.9,39.5L118.9,39.5z M118.9,39.5"/>
	<linearGradient id="SVGID_5_" gradientUnits="userSpaceOnUse" x1="47.8572" y1="54.8466" x2="87.3864" y2="54.8466">
		<stop  offset="0" style="stop-color:#5FC1CF"/>
		<stop  offset="0.5074" style="stop-color:#60BBA0"/>
		<stop  offset="1" style="stop-color:#70C0A8"/>
	</linearGradient>
	<path fill="url(#SVGID_5_)" d="M50.5,57.5h34.2c1.5,0,2.7-1.2,2.7-2.7c0-1.5-1.2-2.7-2.7-2.7H50.5c-1.5,0-2.7,1.2-2.7,2.7
		C47.9,56.3,49.1,57.5,50.5,57.5L50.5,57.5z M50.5,57.5"/>
	<linearGradient id="SVGID_6_" gradientUnits="userSpaceOnUse" x1="47.8572" y1="67.5066" x2="121.5859" y2="67.5066">
		<stop  offset="0" style="stop-color:#5FC1CF"/>
		<stop  offset="0.5074" style="stop-color:#60BBA0"/>
		<stop  offset="1" style="stop-color:#70C0A8"/>
	</linearGradient>
	<path fill="url(#SVGID_6_)" d="M118.9,64.8H50.5c-1.5,0-2.7,1.2-2.7,2.7c0,1.5,1.2,2.7,2.7,2.7h68.4c1.5,0,2.7-1.2,2.7-2.7
		C121.6,66,120.4,64.8,118.9,64.8L118.9,64.8z M118.9,64.8"/>
	<linearGradient id="SVGID_7_" gradientUnits="userSpaceOnUse" x1="47.8572" y1="80.1667" x2="121.5859" y2="80.1667">
		<stop  offset="0" style="stop-color:#5FC1CF"/>
		<stop  offset="0.5074" style="stop-color:#60BBA0"/>
		<stop  offset="1" style="stop-color:#70C0A8"/>
	</linearGradient>
	<path fill="url(#SVGID_7_)" d="M118.9,77.5H50.5c-1.5,0-2.7,1.2-2.7,2.7c0,1.5,1.2,2.7,2.7,2.7h68.4c1.5,0,2.7-1.2,2.7-2.7
		C121.6,78.7,120.4,77.5,118.9,77.5L118.9,77.5z M118.9,77.5"/>
	<linearGradient id="SVGID_8_" gradientUnits="userSpaceOnUse" x1="47.8572" y1="92.8249" x2="121.5859" y2="92.8249">
		<stop  offset="0" style="stop-color:#5FC1CF"/>
		<stop  offset="0.5074" style="stop-color:#60BBA0"/>
		<stop  offset="1" style="stop-color:#70C0A8"/>
	</linearGradient>
	<path fill="url(#SVGID_8_)" d="M118.9,90.2H50.5c-1.5,0-2.7,1.2-2.7,2.7c0,1.5,1.2,2.7,2.7,2.7h68.4c1.5,0,2.7-1.2,2.7-2.7
		C121.6,91.4,120.4,90.2,118.9,90.2L118.9,90.2z M118.9,90.2"/>
	<linearGradient id="SVGID_9_" gradientUnits="userSpaceOnUse" x1="47.8572" y1="105.4849" x2="121.5859" y2="105.4849">
		<stop  offset="0" style="stop-color:#5FC1CF"/>
		<stop  offset="0.5074" style="stop-color:#60BBA0"/>
		<stop  offset="1" style="stop-color:#70C0A8"/>
	</linearGradient>
	<path fill="url(#SVGID_9_)" d="M118.9,102.8H50.5c-1.5,0-2.7,1.2-2.7,2.7c0,1.5,1.2,2.7,2.7,2.7h68.4c1.5,0,2.7-1.2,2.7-2.7
		C121.6,104,120.4,102.8,118.9,102.8L118.9,102.8z M118.9,102.8"/>
	<linearGradient id="SVGID_10_" gradientUnits="userSpaceOnUse" x1="47.8572" y1="118.1432" x2="121.5859" y2="118.1432">
		<stop  offset="0" style="stop-color:#5FC1CF"/>
		<stop  offset="0.5074" style="stop-color:#60BBA0"/>
		<stop  offset="1" style="stop-color:#70C0A8"/>
	</linearGradient>
	<path fill="url(#SVGID_10_)" d="M121.6,118.1c0-1.5-1.2-2.7-2.7-2.7H50.5c-1.5,0-2.7,1.2-2.7,2.7c0,1.5,1.2,2.7,2.7,2.7h68.4
		C120.4,120.8,121.6,119.6,121.6,118.1L121.6,118.1z M121.6,118.1"/>
	<linearGradient id="SVGID_11_" gradientUnits="userSpaceOnUse" x1="47.8572" y1="130.8032" x2="87.3864" y2="130.8032">
		<stop  offset="0" style="stop-color:#5FC1CF"/>
		<stop  offset="0.5074" style="stop-color:#60BBA0"/>
		<stop  offset="1" style="stop-color:#70C0A8"/>
	</linearGradient>
	<path fill="url(#SVGID_11_)" d="M50.5,128.1c-1.5,0-2.7,1.2-2.7,2.7c0,1.5,1.2,2.7,2.7,2.7h34.2c1.5,0,2.7-1.2,2.7-2.7
		c0-1.5-1.2-2.7-2.7-2.7H50.5z M50.5,128.1"/>
</g>
</svg>
