<?xml version="1.0" encoding="utf-8"?>
<!-- Generator: Adobe Illustrator 22.0.1, SVG Export Plug-In . SVG Version: 6.00 Build 0)  -->
<svg version="1.1" id="Warstwa_1" xmlns="http://www.w3.org/2000/svg" xmlns:xlink="http://www.w3.org/1999/xlink" x="0px" y="0px"
	 viewBox="0 0 170 170" enable-background="new 0 0 170 170" xml:space="preserve">
<path d="M63.7,125.8c0,2.7-2.2,5-5,5H47.8v10.9c0,2.7-2.2,5-5,5c-2.7,0-5-2.2-5-5v-10.9H26.9c-2.7,0-5-2.2-5-5c0-2.7,2.2-5,5-5h10.9
	v-10.9c0-2.7,2.2-5,5-5c2.7,0,5,2.2,5,5v10.9h10.9C61.4,120.8,63.7,123,63.7,125.8L63.7,125.8z M168.8,125.8
	c0,23.3-18.9,42.2-42.2,42.2c-13.9,0-26.7-6.7-34.6-18.1H77.4C69.5,161.3,56.7,168,42.8,168c-23.3,0-42.2-18.9-42.2-42.2
	c0-21.7,16.8-39.9,38.1-42v-0.2l3.3,0h32.2v-3.8c0-1.8,1.5-3.3,3.3-3.3h4.2c-3.4-12.8-15.1-22.2-28.9-22.2v0l-30.7,0
	C10.8,54.3,1.7,45.2,1.7,34S10.8,13.6,22,13.6h86.1V10c0-3.6,2.9-6.5,6.5-6.5H144V8h10.6v17.9H144v4.5h-29.3c-3.6,0-6.5-2.9-6.5-6.5
	v-3.7H22.1c-7.6,0-13.8,6.2-13.8,13.8c0,7.6,6.2,13.8,13.8,13.8l30.7,0v0c17.4,0,32,12.3,35.6,28.7h5.9c1.8,0,3.3,1.5,3.3,3.3v3.8
	h32.8v0.2C151.8,85.6,168.8,103.9,168.8,125.8L168.8,125.8z M162.3,125.8c0-19.5-15.8-35.5-35.3-35.7l-2,0l-82.9,0
	c-19.3,0.4-34.9,16.4-34.9,35.7c0,19.7,16,35.7,35.7,35.7c12.3,0,23.5-6.2,30.1-16.6l1-1.5h21.6l1,1.5c6.6,10.4,17.9,16.6,30.1,16.6
	C146.3,161.5,162.3,145.5,162.3,125.8L162.3,125.8z M126.4,133.7c-3.5,0-6.4,2.9-6.4,6.4c0,3.5,2.9,6.4,6.4,6.4
	c3.5,0,6.4-2.9,6.4-6.4C132.8,136.6,129.9,133.7,126.4,133.7L126.4,133.7z M126.4,105c-3.5,0-6.4,2.9-6.4,6.4c0,3.5,2.9,6.4,6.4,6.4
	c3.5,0,6.4-2.9,6.4-6.4C132.8,107.9,129.9,105,126.4,105L126.4,105z M112.2,119.4c-3.5,0-6.4,2.9-6.4,6.4c0,3.5,2.9,6.4,6.4,6.4
	c3.5,0,6.4-2.9,6.4-6.4C118.6,122.2,115.8,119.4,112.2,119.4L112.2,119.4z M140.9,119.4c-3.5,0-6.4,2.9-6.4,6.4
	c0,3.5,2.9,6.4,6.4,6.4s6.4-2.9,6.4-6.4C147.3,122.2,144.5,119.4,140.9,119.4L140.9,119.4z M140.9,119.4"/>
</svg>
