<?xml version="1.0" encoding="utf-8"?>
<!-- Generator: Adobe Illustrator 22.0.1, SVG Export Plug-In . SVG Version: 6.00 Build 0)  -->
<svg version="1.1" id="Warstwa_1" xmlns="http://www.w3.org/2000/svg" xmlns:xlink="http://www.w3.org/1999/xlink" x="0px" y="0px"
	 viewBox="0 0 170 107.7" enable-background="new 0 0 170 107.7" xml:space="preserve">
<path fill-rule="evenodd" clip-rule="evenodd" fill="#231F20" d="M105.1,3.7l-2.3,7.5l0.1,34.7h8.6v4.6h4.6l4.6-4.6h8.1l15-15V3.7
	H105.1z M139.8,28.5l-6.4,6.4H123l-5.8,5.8v-5.8h-8.7V7.7h31.2V28.5z M129.4,15.2h4.1v11.6h-4.1V15.2z M118.9,15.2h4.1v11.6h-4.1
	V15.2z M168.1,69.1v27.2l-15,10.4h-9.3V102l-6.9,4.6h-8.1V102l-5.2,4.6h-15l-4.6-4.6l-1.2,4.6l-13.3,0l-5.2-4.6l-0.6,4.6l-15,0
	L68,102l-4,4.6l-23.1,0l-4.6-2.3v2.3H23.5L9.6,98l-8.7-8.7l0-38.2h17.9l8.7,8.7h39.3v-8.7h32.4v8.7h8.1v4.6l4.6-4.6h9.8l8.7-8.7H149
	v8.7h9.8L168.1,69.1z M23.5,63.8h-8.1v-8.7H4.9v32.4l6.4,6.9h12.2v-11h-8.1v-9.3h8.1V63.8z M66.9,63.8H56.4v19.7h-4.1V63.8h-9.8
	v19.7h-4.1V63.8h-11v30.7h32.4l6.9-6.9V63.8z M80.8,63.8h-9.8v30.7h9.8V63.8z M80.8,55.2h-9.8v4.6h9.8V55.2z M103.3,63.8h-8.1v-8.7
	H84.8v32.4l6.4,6.9h12.2v-11h-8.1v-9.3h8.1V63.8z M129.9,63.8h-16.2l-6.4,6.4v17.4l6.9,6.9h15.6v-11h-11.6v-9.3h11.6V63.8z
	 M164.1,70.2l-6.9-6.4H145v-8.7h-11v39.3h11V74.3h8.1v20.3h11V70.2z"/>
</svg>
